<?xml version="1.0" encoding="UTF-8"?> <svg xmlns="http://www.w3.org/2000/svg" width="1029" height="1070" viewBox="0 0 1029 1070" fill="none"> <path d="M0.426221 674.821C0.426221 674.821 0.409627 631.672 10.8852 583.939C21.3608 536.205 32.5739 506.243 43.3249 479.796C54.0768 453.349 68.4357 419.066 90.6848 386.021C112.934 352.977 127.114 331.882 148.329 294.616C169.544 257.349 195.029 209.661 199.167 202.033C203.305 194.405 223.433 164.923 235.437 146.252C247.441 127.581 248.821 125.683 256.169 113.213C263.517 100.742 277.915 86.6245 285.083 80.2618C292.248 73.898 311.433 57.4832 328.701 46.0369C345.969 34.5896 358.773 25.843 367.812 21.158C376.851 16.472 381.82 14.6562 390.066 10.0245C398.312 5.39285 397.824 6.63967 408.911 4.30502C420.007 1.96932 413.496 5.23595 428.088 1.90656C442.679 -1.42283 451.649 0.162896 466.38 2.45466C481.111 4.74643 500.993 11.4805 512.089 15.5965C523.194 19.7114 537.917 25.8221 550.024 34.7517C562.14 43.6814 572.626 50.9646 582.859 60.3858C593.093 69.8081 603.064 79.4574 613.446 91.3618C623.836 103.266 631.071 111.01 641.845 120.179C652.618 129.348 656.889 139.336 680.712 154.424C704.526 169.511 734.014 187.192 762.552 197.593C791.081 207.993 818.826 213.913 839.119 222.626C859.402 231.34 885.325 237.387 926.842 274.174C968.36 310.959 978.052 333.15 999.033 378.358C1020.01 423.564 1022.06 432.687 1027.25 479.521C1032.44 526.355 1018.92 561.101 1012.96 581.835C1007.01 602.568 988.704 638.48 968.761 663.152C948.817 687.823 940.728 696.371 918.509 709.436C896.3 722.501 881.228 722.863 858.278 723.712C835.327 724.559 814.485 720.745 794.01 713.965C773.526 707.185 755.169 694.473 741.039 691.508C726.919 688.541 699.025 682.185 678.184 687.694C657.351 693.202 629.328 707.727 612.757 722.25C596.187 736.775 579.521 758.872 568.747 777.805C557.974 796.74 547.714 816.349 542.406 828.848C537.089 841.348 519.037 886.137 514.556 897.152C510.076 908.176 501.394 924.944 491.257 941.606C481.111 958.269 473.388 973.697 462.187 986.845C450.986 999.983 428.523 1023.31 405.625 1035.7C382.726 1048.11 365.154 1057.42 339.1 1061.79C313.055 1066.17 297.365 1069.91 274.198 1069.73C251.034 1069.56 224.512 1065.52 199.081 1055.43C199.081 1055.43 159.31 1041.6 141.998 1028.1C124.686 1014.6 105.244 996.939 92.0977 977.149C78.9505 957.359 59.3364 925.875 53.5164 912.538C47.6972 899.202 27.1957 848.398 22.9115 835.679C18.6273 822.959 8.77754 796.514 4.85682 771.952C0.936967 747.389 0.6607 731.645 0.167341 717.141C-0.325147 702.637 0.426221 674.821 0.426221 674.821Z" fill="#96BEE0" stroke="#96BEE0" stroke-width="0.00130669" stroke-miterlimit="10" stroke-linecap="round"></path> </svg> 